<mxfile host="app.diagrams.net" agent="Mozilla/5.0 (Macintosh; Intel Mac OS X 10_15_7) AppleWebKit/537.36 (KHTML, like Gecko) Chrome/133.0.0.0 Safari/537.36" version="26.0.16">
  <diagram name="Page-1" id="8acVLNycFXWevoGZy24r">
    <mxGraphModel dx="754" dy="684" grid="1" gridSize="10" guides="1" tooltips="1" connect="1" arrows="1" fold="1" page="1" pageScale="1" pageWidth="850" pageHeight="1100" math="0" shadow="0">
      <root>
        <mxCell id="0" />
        <mxCell id="1" parent="0" />
        <mxCell id="RV8-iJ388zYVcgj2xCQN-5" value="" style="edgeStyle=orthogonalEdgeStyle;rounded=0;orthogonalLoop=1;jettySize=auto;html=1;" edge="1" parent="1" source="RV8-iJ388zYVcgj2xCQN-1" target="RV8-iJ388zYVcgj2xCQN-2">
          <mxGeometry relative="1" as="geometry" />
        </mxCell>
        <mxCell id="RV8-iJ388zYVcgj2xCQN-1" value="" style="ellipse;whiteSpace=wrap;html=1;" vertex="1" parent="1">
          <mxGeometry x="410" y="30" width="50" height="30" as="geometry" />
        </mxCell>
        <mxCell id="RV8-iJ388zYVcgj2xCQN-6" value="" style="edgeStyle=orthogonalEdgeStyle;rounded=0;orthogonalLoop=1;jettySize=auto;html=1;" edge="1" parent="1" source="RV8-iJ388zYVcgj2xCQN-2" target="RV8-iJ388zYVcgj2xCQN-3">
          <mxGeometry relative="1" as="geometry" />
        </mxCell>
        <mxCell id="RV8-iJ388zYVcgj2xCQN-2" value="IDLE" style="ellipse;whiteSpace=wrap;html=1;" vertex="1" parent="1">
          <mxGeometry x="390" y="90" width="90" height="50" as="geometry" />
        </mxCell>
        <mxCell id="RV8-iJ388zYVcgj2xCQN-3" value="CLOSE_DOOR" style="ellipse;whiteSpace=wrap;html=1;" vertex="1" parent="1">
          <mxGeometry x="377.5" y="190" width="115" height="50" as="geometry" />
        </mxCell>
        <mxCell id="RV8-iJ388zYVcgj2xCQN-7" value="POWER_ON" style="text;html=1;align=center;verticalAlign=middle;whiteSpace=wrap;rounded=0;" vertex="1" parent="1">
          <mxGeometry x="450" y="150" width="60" height="30" as="geometry" />
        </mxCell>
        <mxCell id="RV8-iJ388zYVcgj2xCQN-8" value="CALL_ACCEPTED_FLOOR_2" style="ellipse;whiteSpace=wrap;html=1;" vertex="1" parent="1">
          <mxGeometry x="170" y="280" width="170" height="60" as="geometry" />
        </mxCell>
        <mxCell id="RV8-iJ388zYVcgj2xCQN-9" value="CALL_ACCEPTED_FLOOR_3" style="ellipse;whiteSpace=wrap;html=1;" vertex="1" parent="1">
          <mxGeometry x="350" y="280" width="170" height="60" as="geometry" />
        </mxCell>
        <mxCell id="RV8-iJ388zYVcgj2xCQN-10" value="CALL_ACCEPTED_FLOOR_4" style="ellipse;whiteSpace=wrap;html=1;" vertex="1" parent="1">
          <mxGeometry x="530" y="280" width="170" height="60" as="geometry" />
        </mxCell>
      </root>
    </mxGraphModel>
  </diagram>
</mxfile>
